<?xml version="1.0" standalone="no"?>
<!DOCTYPE svg PUBLIC "-//W3C//DTD SVG 20010904//EN"
 "http://www.w3.org/TR/2001/REC-SVG-20010904/DTD/svg10.dtd">
<svg version="1.0" xmlns="http://www.w3.org/2000/svg"
 width="500.000000pt" height="500.000000pt" viewBox="0 0 500.000000 500.000000"
 preserveAspectRatio="xMidYMid meet">
<metadata>
Created by potrace 1.14, written by Peter Selinger 2001-2017
</metadata>
<g transform="translate(0.000000,500.000000) scale(0.100000,-0.100000)"
fill="#000000" stroke="none">
<path d="M0 2500 l0 -2500 2500 0 2500 0 0 2500 0 2500 -2500 0 -2500 0 0
-2500z m2717 789 c183 -180 333 -329 333 -333 0 -3 -46 -6 -102 -6 l-102 0
-343 342 c-189 189 -343 347 -343 353 0 5 12 38 27 73 l26 62 86 -82 c47 -46
236 -230 418 -409z m-511 94 c-14 -37 -61 -149 -104 -248 l-77 -180 -78 -3
c-53 -2 -77 1 -77 9 0 6 49 127 109 268 60 141 116 274 125 296 l17 39 56 -56
57 -57 -28 -68z m1874 -500 c25 -9 47 -18 49 -19 2 -2 -7 -16 -19 -31 l-22
-28 162 -3 162 -3 -5 -27 c-3 -15 -10 -39 -16 -54 l-11 -28 -201 0 -201 0 -56
-55 -57 -55 57 0 56 0 14 43 15 42 58 3 c56 3 57 2 51 -20 -21 -75 -30 -68 83
-68 56 0 101 -4 101 -8 0 -5 -7 -29 -16 -55 l-16 -47 -103 0 -103 0 -42 -124
c-52 -157 -75 -181 -190 -193 l-60 -6 0 62 0 61 55 0 54 0 31 95 c16 52 30 98
30 102 0 3 -56 3 -124 -1 -138 -7 -136 -8 -136 63 0 31 5 39 34 55 18 10 53
38 77 62 l43 44 -73 0 c-81 0 -79 -4 -45 78 l13 32 105 0 106 0 37 50 c20 28
42 50 47 50 6 0 31 -8 56 -17z m-1642 -1 l44 -7 -42 -52 -42 -53 157 0 c122 0
156 -3 152 -12 -2 -7 -41 -128 -87 -268 -48 -149 -92 -268 -106 -287 -27 -35
-61 -48 -151 -58 l-61 -6 1 60 2 60 63 3 64 3 63 193 63 192 -220 -2 -220 -3
-80 -245 c-43 -134 -81 -246 -82 -248 -2 -2 -28 -2 -58 0 l-54 3 100 308 100
307 110 0 111 0 38 60 c40 65 43 66 135 52z m-591 -16 c-3 -7 -40 -118 -82
-247 -69 -211 -100 -339 -81 -339 4 0 18 23 31 52 l24 52 16 -37 c8 -20 15
-45 15 -56 0 -29 -61 -114 -93 -129 -70 -34 -126 24 -112 115 l6 44 -60 -30
c-33 -17 -62 -27 -64 -23 -3 4 -8 31 -12 60 -4 28 -10 52 -14 52 -5 0 -16 -9
-27 -21 -25 -28 -144 -123 -148 -118 -1 2 -13 21 -25 42 -12 20 -24 37 -26 37
-2 0 -20 -24 -39 -53 -19 -29 -50 -69 -68 -90 l-33 -37 -33 40 -34 41 34 42
c92 113 156 259 263 605 3 9 69 12 286 12 232 0 280 -2 276 -14z m1734 -68
l-18 -53 -129 -5 -129 -5 -22 -60 c-36 -98 -38 -95 77 -95 55 0 100 -4 100 -8
0 -5 -7 -29 -16 -55 l-16 -46 -105 -3 -106 -3 -29 -85 c-15 -46 -28 -88 -28
-92 0 -4 61 -8 135 -8 74 0 135 -4 135 -8 0 -5 -7 -29 -16 -55 l-16 -47 -365
0 c-308 0 -364 2 -360 14 3 8 11 32 18 54 11 40 14 41 58 44 l46 3 57 170 56
170 61 3 60 3 -14 -48 c-8 -26 -33 -102 -55 -168 -22 -65 -40 -123 -40 -128 0
-4 26 -7 57 -5 l57 3 73 220 c39 121 72 223 72 228 1 4 -67 7 -150 7 -125 0
-150 2 -146 14 3 8 11 32 18 55 l12 41 343 0 343 0 -18 -52z m-1111 -215 c0
-4 -19 -65 -42 -135 l-42 -128 -104 0 -103 0 -10 -30 c-10 -28 -15 -30 -60
-30 -27 0 -49 3 -49 6 0 3 23 77 51 165 l51 159 154 0 c85 0 154 -3 154 -7z
m1311 -175 c22 -6 39 -15 39 -19 0 -25 -192 -219 -217 -219 -5 0 -24 15 -42
34 l-32 33 50 37 c28 21 72 62 97 92 26 30 51 54 57 54 5 0 27 -5 48 -12z
m431 -65 c20 -43 38 -85 41 -94 5 -16 -4 -22 -110 -66 -8 -3 -13 2 -13 11 0 9
-13 51 -30 94 -16 42 -30 81 -31 86 0 9 74 44 97 45 6 1 27 -34 46 -76z
m-2591 -340 c-16 -38 -74 -176 -130 -308 -56 -132 -114 -269 -128 -305 -15
-36 -28 -67 -29 -69 -3 -4 -178 -41 -180 -38 -1 1 73 179 165 394 l166 393 82
0 82 0 -28 -67z m2438 -27 c66 -66 91 -96 81 -100 -34 -11 -2702 -537 -2706
-533 -2 2 10 38 28 81 23 54 38 78 53 81 11 3 533 106 1160 231 627 124 1146
228 1154 230 10 3 0 20 -34 54 l-49 50 108 0 109 0 96 -94z m-1034 34 c-3 -5
-16 -11 -28 -11 -17 -1 -18 -2 -4 -6 24 -6 21 -19 -5 -28 l-23 -8 23 -4 c29
-6 19 -23 -14 -23 -27 0 -29 12 -13 59 9 25 16 31 41 31 17 0 27 -4 23 -10z
m196 -24 c-7 -8 -11 -21 -9 -30 2 -8 -1 -16 -7 -18 -5 -2 -11 10 -13 25 -4 33
16 63 31 48 7 -7 6 -15 -2 -25z m-691 14 c0 -5 -4 -10 -10 -10 -5 0 -10 5 -10
10 0 6 5 10 10 10 6 0 10 -4 10 -10z m184 4 c38 -15 2 -84 -44 -84 -28 0 -28
1 -18 38 15 56 23 61 62 46z m441 -14 c-17 -6 -17 -7 -1 -13 13 -5 15 -11 6
-27 -11 -20 -50 -28 -50 -10 0 6 7 10 16 10 14 0 14 2 3 16 -11 14 -10 18 5
30 11 7 24 10 29 7 6 -4 3 -9 -8 -13z m-880 0 c-3 -5 -11 -10 -16 -10 -6 0 -7
5 -4 10 3 6 11 10 16 10 6 0 7 -4 4 -10z m171 -15 c-15 -57 -24 -72 -48 -71
-35 2 -32 47 5 64 15 7 27 17 27 23 0 5 5 9 11 9 7 0 9 -10 5 -25z m452 -3
c-2 -9 -14 -19 -28 -23 -19 -5 -21 -7 -5 -8 14 -1 16 -4 8 -12 -15 -15 -43 -4
-43 16 0 23 37 55 55 49 9 -4 15 -14 13 -22z m202 16 c-1 -39 -13 -55 -41 -56
-35 -1 -40 24 -6 38 12 5 16 9 10 9 -25 2 -13 21 12 21 14 0 25 -6 25 -12z
m-910 -25 l1 -28 15 28 c23 42 30 24 9 -22 -22 -50 -45 -61 -45 -23 l-1 27
-15 -27 c-21 -41 -34 -34 -34 17 0 31 4 45 14 45 9 0 12 -9 9 -27 -3 -27 -3
-27 14 5 20 39 33 41 33 5z m584 2 c-3 -14 -2 -25 4 -25 5 0 13 11 16 25 6 24
26 36 26 16 0 -32 -21 -61 -45 -61 -26 0 -32 19 -19 54 10 26 25 18 18 -9z
m-864 5 c0 -5 -7 -10 -15 -10 -8 0 -19 -17 -26 -40 -7 -22 -16 -40 -21 -40 -6
0 -7 17 -3 40 5 30 3 40 -7 40 -10 0 -9 3 2 10 20 13 70 13 70 0z m34 -4 c-3
-9 1 -13 13 -13 10 1 18 -4 17 -10 -1 -7 -2 -22 -2 -33 -1 -11 -8 -20 -16 -20
-9 0 -12 8 -8 25 2 14 1 25 -2 25 -4 0 -11 -11 -16 -25 -15 -40 -30 -30 -18
13 12 44 16 52 28 52 5 0 7 -6 4 -14z m571 -25 c-4 -17 -11 -31 -16 -31 -12 0
-11 12 1 46 14 35 24 24 15 -15z m72 32 c-14 -4 -16 -8 -6 -19 6 -7 9 -21 5
-29 -6 -17 -46 -21 -46 -5 0 6 8 10 18 10 14 0 14 2 3 9 -20 13 -5 41 21 40
18 -1 19 -2 5 -6z m-317 -7 c0 -15 -24 -66 -31 -66 -8 0 -3 43 8 63 4 7 23 10
23 3z m90 -5 c0 -19 -20 -61 -28 -61 -5 0 -7 11 -4 25 2 15 0 25 -7 25 -6 0
-11 -9 -11 -19 0 -19 -17 -38 -26 -29 -2 3 1 19 7 36 9 26 16 32 40 32 16 0
29 -4 29 -9z m-295 -21 c0 -8 -11 -17 -25 -21 -16 -4 -19 -7 -7 -8 24 -1 21
-21 -3 -21 -26 0 -35 22 -20 50 13 24 55 24 55 0z"/>
<path d="M1356 2713 c-9 -26 -16 -48 -16 -49 0 -2 21 6 46 16 25 11 47 20 48
20 1 0 13 -23 26 -50 22 -48 24 -49 42 -33 10 9 31 36 46 60 30 47 30 47 85
32 45 -12 45 -11 -46 -132 l-62 -82 20 -72 c12 -40 23 -75 27 -78 3 -3 8 11
11 32 4 21 31 116 60 211 l54 172 -162 0 -163 0 -16 -47z"/>
<path d="M1305 2569 c-15 -41 -45 -110 -66 -153 -21 -44 -37 -81 -36 -83 4 -3
159 120 176 141 11 13 8 28 -16 93 l-30 77 -28 -75z"/>
<path d="M2223 2455 l-11 -35 49 0 c44 0 51 3 59 26 16 41 13 44 -38 44 -47 0
-49 -1 -59 -35z"/>
<path d="M2676 1968 c-10 -39 -6 -44 14 -19 11 12 17 27 14 32 -9 16 -21 10
-28 -13z"/>
<path d="M2396 1953 c-9 -9 -7 -33 3 -33 12 0 22 28 12 34 -5 3 -11 3 -15 -1z"/>
</g>
</svg>
